<svg xmlns="http://www.w3.org/2000/svg" viewBox="0 0 425.69 95.27"><defs><style>.cls-1{fill:#ff917f;}.cls-2{fill:#1778f2;}</style></defs><g id="Calque_2" data-name="Calque 2"><g id="Calque_1-2" data-name="Calque 1"><g id="logo_dark_mode_rose_bleu" data-name="logo dark mode rose/bleu"><path d="M85.37,35.88v43H95.43v-43ZM95,15a6.68,6.68,0,0,0-4.59-1.65,6.46,6.46,0,0,0-4.58,1.73A5.65,5.65,0,0,0,84,19.43a5.65,5.65,0,0,0,1.85,4.31,6.46,6.46,0,0,0,4.58,1.73,6.3,6.3,0,0,0,4.63-1.81,6.07,6.07,0,0,0,1.81-4.47A5.31,5.31,0,0,0,95,15Z"/><path d="M131.65,69.36A8.78,8.78,0,0,1,126,71.14a5.73,5.73,0,0,1-4.43-1.65,6.81,6.81,0,0,1-1.53-4.79V44.25h11.51v-8H120.06V26.39H110v9.82h-7.08v8H110V64.94q0,7.08,3.86,10.78t11,3.71a19.48,19.48,0,0,0,5.35-.73,11.9,11.9,0,0,0,4.31-2.17Z"/><path d="M173.7,40q-5-4.55-14.53-4.55a36.27,36.27,0,0,0-10.06,1.37A24.63,24.63,0,0,0,141,40.71l4,7.33a17.52,17.52,0,0,1,5.91-3.14A23.2,23.2,0,0,1,158,43.77q5.31,0,8,2.42a8.79,8.79,0,0,1,2.7,6.92v.64H157.56q-9.26,0-13.56,3.5a11.38,11.38,0,0,0-4.3,9.3,11.6,11.6,0,0,0,2,6.64,13,13,0,0,0,5.59,4.59,20.38,20.38,0,0,0,8.45,1.65A20.65,20.65,0,0,0,164,77.94a11.72,11.72,0,0,0,5.27-4.31v5.23h9.5V53.67Q178.73,44.49,173.7,40Zm-5,25.47a9.37,9.37,0,0,1-4.15,5,12.87,12.87,0,0,1-6.71,1.73,9.92,9.92,0,0,1-6-1.61,5.11,5.11,0,0,1-2.17-4.34q0-5.72,8.69-5.72h10.38Z"/><path d="M191.61,19.14V78.86h10.06V19.14Z"/><path d="M214.86,35.88v43h10.06v-43ZM224.52,15a6.68,6.68,0,0,0-4.59-1.65,6.46,6.46,0,0,0-4.58,1.73,5.65,5.65,0,0,0-1.85,4.31,5.65,5.65,0,0,0,1.85,4.31,6.46,6.46,0,0,0,4.58,1.73,6.29,6.29,0,0,0,4.63-1.81,6.07,6.07,0,0,0,1.81-4.47A5.31,5.31,0,0,0,224.52,15Z"/><path d="M314.3,19.48V79.11h10V19.48Z"/><path d="M368.42,40.26c-3.34-3-8.19-4.55-14.5-4.55a36.15,36.15,0,0,0-10.05,1.37A24.53,24.53,0,0,0,335.76,41l3.93,7.31a17.81,17.81,0,0,1,5.9-3.13,23.19,23.19,0,0,1,7.12-1.13c3.54,0,6.2.81,8,2.41a8.76,8.76,0,0,1,2.7,6.91V54H352.31q-9.24,0-13.55,3.5a11.37,11.37,0,0,0-4.29,9.28,11.66,11.66,0,0,0,2,6.63A13.09,13.09,0,0,0,342,78a22.92,22.92,0,0,0,16.67.16,11.64,11.64,0,0,0,5.27-4.3v5.22h9.49V54Q373.45,44.8,368.42,40.26Zm-5,25.43a9.39,9.39,0,0,1-4.14,5,13,13,0,0,1-6.71,1.72,9.91,9.91,0,0,1-6-1.61,5.11,5.11,0,0,1-2.17-4.34q0-5.7,8.68-5.7H363.4Z"/><path d="M416,36.2,402.46,67.94,389,36.2H378.51l18.73,43.07L396.51,81a11.81,11.81,0,0,1-3.18,4.58A6.8,6.8,0,0,1,389,86.91a10.41,10.41,0,0,1-4-.81,10.63,10.63,0,0,1-3.41-2.17l-4,7.4a14,14,0,0,0,5.14,2.89,19.85,19.85,0,0,0,6.35,1,16.44,16.44,0,0,0,9.72-2.85c2.68-1.91,4.95-5.19,6.84-9.85L425.69,36.2Z"/><path class="cls-1" d="M.3,25.66H11.83l-.37-.75a6.47,6.47,0,0,1-.63-2.08,3.08,3.08,0,0,1,0-.61,1.83,1.83,0,0,1,0-.33,11.39,11.39,0,0,1,20.31-6.78,34.84,34.84,0,0,0,2.09,3.05,4.88,4.88,0,0,0,7.94,0c1.14-1.6,2.08-2.94,2.08-3.05a11.39,11.39,0,0,1,20.31,6.73c0,.12,0,.25,0,.38a4.09,4.09,0,0,1,0,.61,6.52,6.52,0,0,1-.65,2.08l-.37.75H74.05a21.55,21.55,0,0,0,.26-2.56,6.41,6.41,0,0,0,0-.88c0-.47,0-1-.06-1.41A22.16,22.16,0,0,0,38,5.11c-.29.25-.58.48-.85.74-.27-.26-.55-.49-.84-.74A22.16,22.16,0,0,0,.05,20.78c0,.46,0,.95,0,1.44a6.41,6.41,0,0,0,0,.88A21.55,21.55,0,0,0,.3,25.66Z"/><path d="M57.47,35.71l-4.33,8.67L42.74,65.19a6.22,6.22,0,0,1-11.13,0L21.19,44.38l-4.33-8.67H4.62c.17.22.33.45.51.66L22,70A17,17,0,0,0,52.4,70l16.78-33.6c.19-.23.36-.47.54-.7Z"/><path class="cls-2" d="M307.19,42.5a17,17,0,0,1-9.41,15.23L259.05,77.09V65L293,48.07a6.22,6.22,0,0,0,0-11.14L257.54,19a6.12,6.12,0,0,0-6.06.28,6.09,6.09,0,0,0-2.95,5.29V95.27h-10.8V24.56A17,17,0,0,1,262.37,9.34l35.41,17.94A16.93,16.93,0,0,1,307.19,42.5Z"/></g></g></g></svg>
